<?xml version="1.0" encoding="UTF-8"?>
<svg width="43px" height="54px" viewBox="0 0 43 54" version="1.1" xmlns="http://www.w3.org/2000/svg" xmlns:xlink="http://www.w3.org/1999/xlink">
    <!-- Generator: Sketch 42 (36781) - http://www.bohemiancoding.com/sketch -->
    <title>Imported Layers</title>
    <desc>Created with Sketch.</desc>
    <defs></defs>
    <g id="Symbols" stroke="none" stroke-width="1" fill="none" fill-rule="evenodd">
        <g id="科研能力强" fill="#FF5564">
            <g id="Imported-Layers">
                <g id="owl" fill-rule="nonzero">
                    <g id="Layer_1">
                        <g id="Group">
                            <path d="M14.2832089,37.7270526 C15.5614557,37.7270526 16.4634464,36.9222105 16.7950991,36.4470526 C17.0749408,36.0455789 16.9795711,35.4985263 16.5856617,35.2102105 C16.1898722,34.9209474 15.6363517,35.0108421 15.3439751,35.4033684 C15.3278886,35.4249474 14.9437983,35.9306316 14.2832089,35.9306316 C13.6333786,35.9306316 13.2509596,35.442 13.2233828,35.4051579 C12.9381093,35.0072632 12.3881405,34.9129474 11.9879637,35.1958947 C11.585071,35.4815789 11.4879255,36.042 11.7713188,36.4471579 C12.1028669,36.9222105 13.0049622,37.7270526 14.2832089,37.7270526 Z" id="Shape"></path>
                            <path d="M13.3918728,12.5762105 C9.95114634,12.5762105 7.15231135,15.3967368 7.15231135,18.8638947 C7.15231135,22.3310526 9.9512508,25.1515789 13.3918728,25.1515789 C16.8325993,25.1515789 19.6314343,22.3310526 19.6314343,18.8638947 C19.6314343,15.3967368 16.8324949,12.5762105 13.3918728,12.5762105 Z M13.3918728,23.3551579 C10.934405,23.3551579 8.93498352,21.3404211 8.93498352,18.8638947 C8.93498352,16.3874737 10.9343006,14.3726316 13.3918728,14.3726316 C15.8493406,14.3726316 17.8487622,16.3873684 17.8487622,18.8638947 C17.8486577,21.3404211 15.8493406,23.3551579 13.3918728,23.3551579 Z" id="Shape"></path>
                            <path d="M22.4748727,35.4032632 C22.4587862,35.4248421 22.0746959,35.9305263 21.4141065,35.9305263 C20.7642762,35.9305263 20.3818572,35.4418947 20.3542804,35.4050526 C20.0690069,35.0071579 19.519038,34.9128421 19.1188612,35.1957895 C18.7159685,35.4814737 18.618823,36.0418947 18.9022163,36.4470526 C19.2337645,36.9222105 20.1358597,37.7270526 21.4141065,37.7270526 C22.6923532,37.7270526 23.594344,36.9222105 23.9259966,36.4470526 C24.2058384,36.0455789 24.1104686,35.4985263 23.7165593,35.2102105 C23.3217098,34.9209474 22.7672493,35.0107368 22.4748727,35.4032632 Z" id="Shape"></path>
                            <path d="M2.70430093,22.3293684 C2.63473221,22.8207368 2.97348797,23.2761053 3.46015559,23.3462105 C3.94598755,23.4126316 4.39881093,23.0749474 4.46921531,22.5845263 C5.38374096,16.1324211 3.59918856,11.5370526 3.49410429,11.2791579 C3.47801783,11.2468421 2.10178991,8.36526316 1.84503331,2.72694737 L7.50882489,7.00705263 C7.74239193,7.184 8.04636333,7.23336842 8.32442927,7.14084211 C8.3769714,7.12284211 13.6504052,5.39021053 21.4142109,5.39021053 C29.1780167,5.39021053 34.4505103,7.12294737 34.5039926,7.14084211 C34.7820585,7.23336842 35.0860299,7.184 35.319597,7.00705263 L40.9833886,2.72694737 C40.726632,8.36526316 39.3468525,11.2530526 39.304965,11.3437895 C39.2292333,11.5369474 37.4446809,16.1323158 38.3592066,22.5844211 C38.4225078,23.0317895 38.8039867,23.3551579 39.2408281,23.3551579 C39.2827156,23.3551579 39.324603,23.3524211 39.3682663,23.3462105 C39.8549339,23.2761053 40.1936897,22.8207368 40.1241209,22.3293684 C39.2827156,16.3973684 40.934398,12.0794737 40.9299063,12.0794737 C41.0065781,11.9249474 42.8071125,8.21347368 42.8071125,0.899052632 C42.8071125,0.558631579 42.6163731,0.247789474 42.3141775,0.0951578947 C42.0111462,-0.0575789474 41.6509766,-0.0243157895 41.3809539,0.180526316 L34.6127329,5.296 C33.1419709,4.86210526 28.2546121,3.59378947 21.4142109,3.59378947 C14.5738098,3.59378947 9.68645097,4.86210526 8.21568898,5.29589474 L1.44746796,0.180421053 C1.17650513,-0.0244210526 0.815499916,-0.0575789474 0.514244407,0.0950526316 C0.21204878,0.247789474 0.0213093356,0.558526316 0.0213093356,0.898947368 C0.0213093356,8.21336842 1.82100807,11.9249474 1.86728276,12.012 C1.88420488,12.0543158 3.55197376,16.3488421 2.70430093,22.3293684 Z" id="Shape"></path>
                            <path d="M25.4743706,25.3025263 C25.0634347,25.0258947 24.5107499,25.1381053 24.2380113,25.5513684 L21.4141065,29.8197895 L18.5902017,25.5513684 C18.316523,25.1382105 17.7630025,25.0258947 17.3538424,25.3025263 C16.9446823,25.5773684 16.8341662,26.1351579 17.1069048,26.5484211 L20.6723536,31.9378947 C20.837292,32.1875789 21.1153579,32.3375789 21.414002,32.3375789 C21.711706,32.3375789 21.9898764,32.1875789 22.1556505,31.9378947 L25.7210992,26.5484211 C25.9940468,26.1352632 25.8835307,25.5773684 25.4743706,25.3025263 Z" id="Shape"></path>
                            <path d="M13.3918728,17.0674737 C12.4087186,17.0674737 11.6090962,17.8731579 11.6090962,18.864 C11.6090962,19.8548421 12.4086141,20.6605263 13.3918728,20.6605263 C14.3750271,20.6605263 15.1746495,19.8548421 15.1746495,18.864 C15.1746495,17.8731579 14.3750271,17.0674737 13.3918728,17.0674737 Z" id="Shape"></path>
                            <path d="M27.4915499,40.9383158 C27.7713916,40.5368421 27.6760219,39.9897895 27.2821125,39.7014737 C26.886323,39.4122105 26.3328025,39.5029474 26.0404259,39.8946316 C26.0243394,39.9162105 25.6402491,40.4218947 24.9796597,40.4218947 C24.3298294,40.4218947 23.9474104,39.9332632 23.9198336,39.8964211 C23.6345601,39.4985263 23.0837556,39.4042105 22.6844145,39.6871579 C22.2815218,39.9718947 22.1843763,40.5324211 22.4677696,40.9384211 C22.7993177,41.4135789 23.701413,42.2184211 24.9796597,42.2184211 C26.2579065,42.2183158 27.1598972,41.4134737 27.4915499,40.9383158 Z" id="Shape"></path>
                            <path d="M35.6761105,18.8638947 C35.6761105,15.3966316 32.8771711,12.5762105 29.436549,12.5762105 C25.995927,12.5762105 23.1969876,15.3967368 23.1969876,18.8638947 C23.1969876,22.3310526 25.995927,25.1515789 29.436549,25.1515789 C32.8771711,25.1515789 35.6761105,22.3311579 35.6761105,18.8638947 Z M29.436549,23.3551579 C26.9790812,23.3551579 24.9796597,21.3404211 24.9796597,18.8638947 C24.9796597,16.3874737 26.9789768,14.3726316 29.436549,14.3726316 C31.8940168,14.3726316 33.8934384,16.3873684 33.8934384,18.8638947 C33.8933339,21.3404211 31.8940168,23.3551579 29.436549,23.3551579 Z" id="Shape"></path>
                            <path d="M39.9582424,25.1695789 C39.842399,25.192 37.1103124,25.7741053 35.1092195,28.8667368 C32.8433268,32.3708421 32.4386584,37.5321053 33.9068089,44.2087368 C34.0128333,44.6937895 34.4915622,44.9991579 34.9693509,44.8923158 C35.4506912,44.7845263 35.7537225,44.3048421 35.6476981,43.8207368 C34.3141933,37.7557895 34.633311,32.9411579 36.5702669,29.8988421 C37.5685675,28.3313684 38.7683667,27.5661053 39.5349805,27.2104211 C41.3471097,34.1116842 40.2204308,42.0853684 36.6879906,46.9008421 C35.6218971,48.3532632 33.8899913,50.0473684 31.5920301,50.2603158 C30.9681053,49.2147368 29.8422621,48.506 28.5453174,48.506 C27.2314506,48.506 26.0940126,49.2335789 25.4763553,50.3025263 L17.35238,50.3025263 C16.7337825,49.2335789 15.5972846,48.506 14.2834178,48.506 C12.9874133,48.506 11.8624057,49.2137895 11.2376452,50.2585263 C8.93613255,50.0348421 7.20151085,48.3363158 6.13364155,46.8802105 C2.60287267,42.062 1.47890967,34.0972632 3.29281463,27.2104211 C4.05044508,27.5616842 5.23332212,28.3143158 6.22545971,29.8485263 C8.19093255,32.8890526 8.51892918,37.7198947 7.1738296,43.8197895 C7.0668651,44.3038947 7.36989638,44.7835789 7.85040101,44.8913684 C8.32996552,44.9982105 8.80681413,44.6937895 8.91377864,44.2095789 C10.3863164,37.5329474 9.98436384,32.3715789 7.71930681,28.8675789 C5.71998974,25.774 2.98612733,25.192 2.87028394,25.1694737 C2.42195223,25.0805263 1.97800774,25.3446316 1.84346644,25.7856842 C-0.474132717,33.3767368 0.700701093,42.4894737 4.70027536,47.9463158 C6.4313455,50.3095789 8.49845551,51.7009474 10.7250722,52.0234737 C10.7250722,52.0494737 10.717969,52.0728421 10.717969,52.0989474 C10.717969,53.0896842 11.517487,53.8954737 12.5007457,53.8954737 L16.0661944,53.8954737 C17.0493487,53.8954737 17.8489711,53.0897895 17.8489711,52.0989474 L24.9799731,52.0989474 C24.9799731,53.0896842 25.779491,53.8954737 26.7627497,53.8954737 L30.3281985,53.8954737 C31.3113527,53.8954737 32.1109751,53.0897895 32.1109751,52.0989474 C32.1109751,52.0747368 32.1047077,52.0522105 32.103872,52.0288421 C34.3278772,51.7135789 36.3913312,50.3266316 38.1215657,47.9687368 C42.1229157,42.5146316 43.3004654,33.3929474 40.9855822,25.7865263 C40.8505186,25.3456842 40.4047983,25.0752632 39.9582424,25.1695789 Z M12.5004323,52.0990526 C12.5004323,51.1083158 13.2999502,50.3025263 14.2832089,50.3025263 C15.2663632,50.3025263 16.0659855,51.1082105 16.0668212,52.0990526 L12.5004323,52.0990526 Z M26.7624363,52.0990526 C26.7624363,51.1083158 27.5619542,50.3025263 28.545213,50.3025263 C29.5284717,50.3025263 30.3279896,51.1082105 30.3288252,52.0990526 L26.7624363,52.0990526 Z" id="Shape"></path>
                            <path d="M16.9573216,42.2183158 C18.2355684,42.2183158 19.1376636,41.4134737 19.4692118,40.9383158 C19.7491579,40.5368421 19.6536838,39.9897895 19.2597744,39.7014737 C18.8639849,39.4122105 18.3104644,39.5029474 18.0180878,39.8946316 C18.0020013,39.9162105 17.617911,40.4218947 16.9573216,40.4218947 C16.3074913,40.4218947 15.9250723,39.9332632 15.8974955,39.8964211 C15.612222,39.4985263 15.0622532,39.4042105 14.6620764,39.6871579 C14.2591837,39.9718947 14.1620382,40.5324211 14.4454315,40.9384211 C14.7769796,41.4134737 15.6790749,42.2183158 16.9573216,42.2183158 Z" id="Shape"></path>
                            <path d="M29.436549,17.0674737 C28.4533948,17.0674737 27.6537724,17.8731579 27.6537724,18.864 C27.6537724,19.8548421 28.4532903,20.6605263 29.436549,20.6605263 C30.4198077,20.6605263 31.2193257,19.8548421 31.2193257,18.864 C31.2193257,17.8731579 30.4197033,17.0674737 29.436549,17.0674737 Z" id="Shape"></path>
                            <path d="M21.4142109,46.7095789 C22.6924577,46.7095789 23.5944484,45.9047368 23.9261011,45.4295789 C24.2059428,45.0281053 24.1105731,44.4810526 23.7166638,44.1927368 C23.3218143,43.9026316 22.7673537,43.9933684 22.4749771,44.3858947 C22.4588907,44.4074737 22.0748003,44.9131579 21.4142109,44.9131579 C20.7643807,44.9131579 20.3819616,44.4245263 20.3543849,44.3876842 C20.0691114,43.9897895 19.5191425,43.8954737 19.1189657,44.1784211 C18.716073,44.4641053 18.6189275,45.0236842 18.9023208,45.4296842 C19.233869,45.9047368 20.1359642,46.7095789 21.4142109,46.7095789 Z" id="Shape"></path>
                            <path d="M31.0569987,36.4470526 C31.3368404,36.0455789 31.2414706,35.4985263 30.8475613,35.2102105 C30.4527119,34.9209474 29.8991914,35.0108421 29.6058747,35.4033684 C29.5897882,35.4249474 29.2056979,35.9306316 28.5451085,35.9306316 C27.8952782,35.9306316 27.5128592,35.442 27.4852824,35.4051579 C27.2000089,35.0072632 26.6492044,34.9129474 26.2498632,35.1958947 C25.8469706,35.4815789 25.7498251,36.042 26.0332183,36.4471579 C26.3647665,36.9223158 27.2668617,37.7271579 28.5451085,37.7271579 C29.8233553,37.7271579 30.7254505,36.9222105 31.0569987,36.4470526 Z" id="Shape"></path>
                        </g>
                    </g>
                </g>
                <path d="M23.99736,35.04392 C23.84832,35.04392 23.69712,35.03744 23.54376,35.018 C21.58032,34.7912 20.10072,33.128 20.10072,31.14728 C20.10072,30.54896 19.61688,30.06728 19.02072,30.06728 C18.42456,30.06728 17.94072,30.54896 17.94072,31.14728 C17.94072,34.22528 20.24328,36.8108 23.28888,37.16288 C23.52216,37.19312 23.7576,37.20392 23.99736,37.20392 C24.59352,37.20392 25.07952,36.72224 25.07952,36.12392 C25.07952,35.52776 24.59352,35.04392 23.99736,35.04392" id="Fill-2"></path>
            </g>
        </g>
    </g>
</svg>