<?xml version="1.0" encoding="UTF-8"?>
<svg width="50px" height="54px" viewBox="0 0 50 54" version="1.1" xmlns="http://www.w3.org/2000/svg" xmlns:xlink="http://www.w3.org/1999/xlink">
    <!-- Generator: Sketch 42 (36781) - http://www.bohemiancoding.com/sketch -->
    <title>国际影响力</title>
    <desc>Created with Sketch.</desc>
    <defs></defs>
    <g id="Landing-Page" stroke="none" stroke-width="1" fill="none" fill-rule="evenodd">
        <g id="Landing-Page---Slide-1" transform="translate(-1051.000000, -949.000000)" fill="#6BB78D">
            <g id="adventages" transform="translate(131.000000, 896.000000)">
                <g id="国际影响力" transform="translate(920.000000, 53.000000)">
                    <g id="idea">
                        <g id="Capa_1" fill-rule="nonzero">
                            <g id="Group">
                                <path d="M25,8 C15.626,8 8,15.626 8,25 C8,32.112 12.391,38.412 19,40.9 L19,50 C19,50.553 19.447,51 20,51 L21,51 L21,53 C21,53.553 21.447,54 22,54 L28,54 C28.553,54 29,53.553 29,53 L29,51 L30,51 C30.553,51 31,50.553 31,50 L31,40.9 C37.609,38.412 42,32.112 42,25 C42,15.626 34.374,8 25,8 Z M28,49 C27.447,49 27,49.447 27,50 L27,52 L23,52 L23,50 C23,49.447 22.553,49 22,49 L21,49 L21,44 L29,44 L29,49 L28,49 Z M29.688,39.242 C29.277,39.377 29,39.761 29,40.192 L29,42 L21,42 L21,40.192 C21,39.76 20.723,39.377 20.312,39.242 C14.145,37.214 10,31.49 10,25 C10,16.729 16.729,10 25,10 C33.271,10 40,16.729 40,25 C40,31.49 35.855,37.214 29.688,39.242 Z" id="Shape"></path>
                                <path d="M25,6 C25.553,6 26,5.553 26,5 L26,1 C26,0.447 25.553,0 25,0 C24.447,0 24,0.447 24,1 L24,5 C24,5.553 24.447,6 25,6 Z" id="Shape"></path>
                                <path d="M49,24 L45,24 C44.447,24 44,24.447 44,25 C44,25.553 44.447,26 45,26 L49,26 C49.553,26 50,25.553 50,25 C50,24.447 49.553,24 49,24 Z" id="Shape"></path>
                                <path d="M5,24 L1,24 C0.447,24 0,24.447 0,25 C0,25.553 0.447,26 1,26 L5,26 C5.553,26 6,25.553 6,25 C6,24.447 5.553,24 5,24 Z" id="Shape"></path>
                                <path d="M41.264,7.322 L38.436,10.15 C38.045,10.541 38.045,11.173 38.436,11.564 C38.631,11.759 38.887,11.857 39.143,11.857 C39.399,11.857 39.655,11.759 39.85,11.564 L42.678,8.736 C43.069,8.345 43.069,7.713 42.678,7.322 C42.287,6.931 41.654,6.932 41.264,7.322 Z" id="Shape"></path>
                                <path d="M10.15,38.436 L7.322,41.264 C6.931,41.655 6.931,42.287 7.322,42.678 C7.517,42.873 7.773,42.971 8.029,42.971 C8.285,42.971 8.541,42.873 8.736,42.678 L11.564,39.85 C11.955,39.459 11.955,38.827 11.564,38.436 C11.173,38.045 10.541,38.045 10.15,38.436 Z" id="Shape"></path>
                                <path d="M39.85,38.436 C39.459,38.045 38.827,38.045 38.436,38.436 C38.045,38.827 38.045,39.459 38.436,39.85 L41.264,42.678 C41.459,42.873 41.715,42.971 41.971,42.971 C42.227,42.971 42.483,42.873 42.678,42.678 C43.069,42.287 43.069,41.655 42.678,41.264 L39.85,38.436 Z" id="Shape"></path>
                                <path d="M10.15,11.564 C10.345,11.759 10.601,11.857 10.857,11.857 C11.113,11.857 11.369,11.759 11.564,11.564 C11.955,11.173 11.955,10.541 11.564,10.15 L8.736,7.322 C8.345,6.931 7.713,6.931 7.322,7.322 C6.931,7.713 6.931,8.345 7.322,8.736 L10.15,11.564 Z" id="Shape"></path>
                                <path d="M25,13 C18.383,13 13,18.383 13,25 C13,25.553 13.447,26 14,26 C14.553,26 15,25.553 15,25 C15,19.486 19.486,15 25,15 C25.553,15 26,14.553 26,14 C26,13.447 25.553,13 25,13 Z" id="Shape"></path>
                            </g>
                        </g>
                    </g>
                </g>
            </g>
        </g>
    </g>
</svg>