<?xml version="1.0" encoding="UTF-8"?>
<svg width="51px" height="54px" viewBox="0 0 51 54" version="1.1" xmlns="http://www.w3.org/2000/svg" xmlns:xlink="http://www.w3.org/1999/xlink">
    <!-- Generator: Sketch 42 (36781) - http://www.bohemiancoding.com/sketch -->
    <title>国际化视野</title>
    <desc>Created with Sketch.</desc>
    <defs></defs>
    <g id="Landing-Page" stroke="none" stroke-width="1" fill="none" fill-rule="evenodd">
        <g id="Landing-Page---Slide-1" transform="translate(-676.000000, -949.000000)" fill="#50D4D2">
            <g id="adventages" transform="translate(131.000000, 896.000000)">
                <g id="国际化视野" transform="translate(545.000000, 53.000000)">
                    <g id="earth-globe">
                        <g id="Layer_1" fill-rule="nonzero">
                            <g id="Group">
                                <path d="M5.1355005,17.9631211 C5.61122796,18.1026563 6.10935868,17.8281211 6.24756471,17.3502422 C8.90608498,8.1945 17.4119615,1.80003516 26.9330317,1.80003516 C28.4570845,1.80003516 29.9720919,1.95929297 31.4476569,2.27527734 C31.4153668,3.57032813 31.9727136,4.45869141 32.3316917,5.02927734 C32.4312968,5.18769141 32.5668733,5.40369141 32.5829658,5.43332813 C32.5829658,8.66077734 31.9250672,9.18632813 31.9322194,9.18812109 C30.4772697,9.18812109 28.0899025,10.491293 27.1922995,12.1716211 C26.6412635,13.2021563 26.68607,14.2929141 27.3170426,15.243293 C27.7496464,15.8940352 28.1220874,16.6175508 28.4829587,17.3177578 C29.2458266,18.7991719 30.092207,20.4425859 31.4214672,20.4425859 C31.702402,20.4425859 32.00574,20.3687578 32.334216,20.2041211 C33.3807533,19.6794141 34.1311047,18.1872422 34.8563183,16.7453789 C35.175854,16.1099297 35.6452707,15.1775859 35.9234708,14.8814297 C36.8344315,15.0056719 37.2796569,15.8318086 37.8819155,17.1404648 C38.3252476,18.1035 38.7839359,19.0979648 39.6850098,19.549793 C41.2018052,20.3103281 46.1894232,19.5138281 48.9457605,18.3401719 C49.3577491,18.1646719 49.5775745,17.7110508 49.4609303,17.2772578 C47.577058,10.2932227 42.4601743,4.48379297 35.7718018,1.73780859 C35.3132186,1.54880859 34.7880567,1.76934375 34.6005214,2.2291875 C34.4129861,2.68903125 34.6328116,3.2146875 35.0914999,3.40273828 C41.0161632,5.83632422 45.6052555,10.8718242 47.5035374,16.9711875 C44.7103872,17.9584805 41.1256552,18.2554805 40.4875304,17.9396016 C40.1501141,17.7704297 39.8108046,17.0351016 39.5118841,16.3861523 C38.8862757,15.0271875 38.0291669,13.1659805 35.84101,13.0687383 C34.7101186,13.0002891 34.0728352,14.3053594 33.2533808,15.9352734 C32.7722891,16.8910313 32.0462342,18.3355313 31.4673255,18.6209297 C31.1343268,18.5426719 30.4728521,17.2583789 30.0779026,16.4915156 C29.7126138,15.7823438 29.2988371,14.9785664 28.8105933,14.2451367 C28.5458562,13.8473086 28.5350227,13.4693086 28.774727,13.0211719 C29.39129,11.8673437 31.2411893,10.9880508 31.9322194,10.9880508 C33.5549307,10.9880508 34.3779613,9.11967187 34.3779613,5.43322266 C34.3779613,4.90946484 34.1096481,4.48284375 33.8511166,4.06972266 C33.4705767,3.46580859 33.0783619,2.84037891 33.3108088,1.77292969 C33.41399,1.29863672 33.1232736,0.826980469 32.6538569,0.708222656 C30.7951225,0.238464844 28.8699146,0 26.9330317,0 C16.6185915,0 7.403594,6.92824219 4.52430169,16.848 C4.38514904,17.3250352 4.65977305,17.8245352 5.1355005,17.9631211 Z" id="Shape"></path>
                                <path d="M37.6998495,23.868 C37.4404766,23.9418281 37.085916,24.0444492 36.9916751,24.0516211 C35.7512917,24.0516211 34.965074,25.0146563 34.3915295,25.7175 C34.1725455,25.985707 33.7767546,26.4671719 33.5245338,26.4744492 C33.118856,26.271 32.692563,26.1684844 32.2572245,26.1684844 C31.1990123,26.1684844 30.2826873,26.7993984 30.0780078,27.6705703 C29.933491,28.2826055 30.1462694,29.1204492 31.1738743,29.6361914 C32.6314536,30.3669844 34.1384673,31.1221406 34.8088823,31.7943984 C35.2702001,32.2569844 36.0680928,32.5224492 36.9988273,32.5224492 C38.4124415,32.5224492 40.2918963,31.8339492 40.9371733,29.8917422 C41.1920235,29.1267773 41.8015395,28.5417422 42.3911765,27.9765352 C43.0750544,27.3186211 43.7222246,26.6985703 43.7311649,25.8084141 C43.7374757,25.2827578 43.5050287,24.7806211 43.0418176,24.315293 C42.410845,23.6835352 41.5519482,23.3621719 40.4874252,23.3621719 C39.466131,23.3621719 38.4447316,23.6547422 37.6998495,23.868 Z M41.9361694,25.7840508 C41.8939924,25.9613438 41.4469789,26.3906016 41.1499517,26.6758945 C40.4722793,27.3256875 39.629475,28.1348438 39.2346306,29.3228438 C38.7912985,30.6548086 37.2941717,30.7223086 36.9988273,30.7223086 C36.4755586,30.7223086 36.1470827,30.5837227 36.0788211,30.5225508 C35.2009919,29.6423086 33.6348673,28.8566719 31.9761845,28.026 C31.9726084,28.024207 31.9698738,28.0232578 31.9662976,28.0214648 C32.1350058,27.9521719 32.4473893,27.9476367 32.7220133,28.0844297 C33.0118883,28.2301875 33.3098622,28.3040156 33.606048,28.3040156 C34.5995748,28.3040156 35.2269713,27.5354648 35.7799006,26.8577227 C36.184737,26.3636016 36.6020897,25.8515508 36.9915699,25.8515508 C37.310159,25.8515508 37.6809172,25.7453438 38.1925109,25.5986367 C38.8719713,25.4042578 39.7174051,25.1621016 40.4875304,25.1621016 C41.066439,25.1621016 41.4865265,25.3016367 41.7718788,25.5877734 C41.8966218,25.7139141 41.9308052,25.7840508 41.9361694,25.7840508 Z" id="Shape"></path>
                                <path d="M50.0462549,20.1618281 C49.9779934,19.6686562 49.5184636,19.3257773 49.0347425,19.3932773 C48.543764,19.4617266 48.2000369,19.9161914 48.2682985,20.4085195 C48.4047165,21.3976055 48.4738195,22.4047266 48.4738195,23.4001406 C48.4738195,35.2243477 38.9509612,44.8588125 27.1915633,44.9983477 C23.9998875,42.9544687 21.0084737,40.4506406 22.3413099,37.3330898 C24.7341464,31.7323828 22.5073885,29.6452617 21.5559336,28.7524687 L21.3773386,28.5823477 C21.1053441,28.3105547 20.79843,28.1251406 20.5282235,27.9622969 C19.8712715,27.5672109 19.6944646,27.4610039 20.0471319,26.3998828 C20.2805255,25.6951406 20.5910157,25.3667109 20.9491524,24.9859687 C21.7793352,24.1057266 22.4138839,23.230125 22.4138839,20.6848477 C22.4138839,19.2034336 21.664479,18.0217617 20.3576221,17.4430547 C18.8757464,16.7860898 16.8966865,17.0182266 15.8502544,17.9705039 C15.1968785,18.5662969 14.9769479,19.3772461 15.2479958,20.1934687 C15.8879087,22.1150039 14.4258067,24.892418 11.6937658,26.9470547 C10.9703404,27.4906406 10.7549325,27.2413125 10.6256667,27.0928125 C9.82419795,26.1666914 9.88614875,23.5323984 10.5439421,22.8736406 C10.9846448,22.4317266 11.1156986,21.8674687 10.8939799,21.3643828 C10.1669784,19.7110547 5.52939821,19.8388828 4.60949719,19.882125 C4.17237065,19.9027969 3.81339258,20.2358672 3.75954061,20.6714531 C3.6455259,21.6020039 3.59714327,22.418332 3.59714327,23.4002461 C3.59714327,34.1912812 10.8841982,43.532332 21.3171759,46.1171602 C21.7964794,46.2368672 22.2847233,45.9416602 22.4031555,45.4592461 C22.5225344,44.976832 22.2281366,44.4890391 21.747045,44.3702812 C12.1174294,41.9840508 5.39224398,33.360293 5.39224398,23.4000352 C5.39224398,22.7754492 5.4138058,22.2237422 5.46134699,21.6612773 C6.97993046,21.6594844 8.26974823,21.8358281 8.9276468,22.0374844 C7.89814861,23.6493633 8.01121671,26.8182773 9.26958577,28.2726914 C10.1716063,29.3149336 11.4802512,29.3580703 12.7709104,28.3870195 C16.2192245,25.7940703 17.8599215,22.3533633 16.9507488,19.6245703 C16.9220348,19.5354492 16.8933207,19.4518125 17.0584527,19.3015195 C17.5306041,18.8713125 18.7323865,18.6894844 19.6316723,19.0891055 C20.2958817,19.3833633 20.6189935,19.9054336 20.6189935,20.6848477 C20.6189935,22.7161758 20.210581,23.1499687 19.6451353,23.7493477 C19.2259945,24.1948477 18.7036725,24.7483477 18.3437478,25.8310898 C17.5369149,28.2620391 18.8311502,29.0413477 19.6047464,29.5066758 C19.8049032,29.6263828 19.9933851,29.7397617 20.1082412,29.8549336 C20.1737681,29.9206406 20.2482353,29.9908828 20.3299599,30.0673477 C21.1197537,30.8071055 22.5881665,32.1850547 20.6916726,36.6229687 C18.54117,41.6548828 24.0861348,45.1630898 26.4538334,46.6615898 C26.5974035,46.7515547 26.7634822,46.8001758 26.9331369,46.8001758 C39.8001815,46.8001758 50.2690254,36.3025547 50.2690254,23.4001406 C50.268815,22.3218281 50.1943479,21.2327578 50.0462549,20.1618281 Z" id="Shape"></path>
                                <path d="M41.9316467,43.6220859 C37.5732132,46.8783281 32.3863851,48.6 26.9329266,48.6 C13.0759313,48.6 1.80204256,37.2959648 1.80204256,23.4000352 C1.80204256,22.9032773 1.39994085,22.5000703 0.904544799,22.5000703 C0.409148752,22.5000703 0.00704703506,22.9032773 0.00704703506,23.4000352 C0.00704703506,37.9863633 11.6032062,49.8995859 26.035534,50.3775703 L26.035534,53.1000352 C26.035534,53.596793 26.4376357,54 26.9330317,54 C27.4284278,54 27.8305295,53.596793 27.8305295,53.1000352 L27.8305295,50.3640703 C33.3422575,50.1849844 38.5739974,48.3759844 43.0042685,45.0657422 C43.4018475,44.7687422 43.4835721,44.2053281 43.1873862,43.805707 C42.8910952,43.4078789 42.3301723,43.3250859 41.9316467,43.6220859 Z" id="Shape"></path>
                                <path d="M27.6196444,36.465293 C26.4994813,36.465293 25.1855774,37.757707 24.7062738,38.9177578 C24.3320447,39.8240508 24.4433248,40.6691719 25.0123466,41.2397578 C25.5481316,41.7770156 26.3433947,42.0857227 27.1942979,42.0857227 C28.0452011,42.0857227 28.8403591,41.7770156 29.3770908,41.2397578 C29.9730385,40.6421719 30.1185019,39.7637227 29.7863447,38.7674648 C29.562838,38.0942578 29.1195058,37.3823437 28.602548,36.8630156 C28.3456993,36.6066211 27.9966081,36.465293 27.6196444,36.465293 Z M28.1078882,39.9663281 C27.7093626,40.3659492 26.6736588,40.3550859 26.2858615,39.9762422 C26.2733451,39.9375352 26.2741866,39.7125703 26.5119977,39.3183281 C26.8216465,38.8062773 27.258773,38.4444141 27.4957427,38.3157422 C27.750593,38.6190703 27.9714702,38.9988633 28.0835917,39.3363633 C28.183302,39.634207 28.1922422,39.8825859 28.1078882,39.9663281 Z" id="Shape"></path>
                            </g>
                        </g>
                    </g>
                </g>
            </g>
        </g>
    </g>
</svg>